<svg aria-hidden="true" style="position: absolute; width: 0; height: 0; overflow: hidden;" version="1.1" xmlns="http://www.w3.org/2000/svg" xmlns:xlink="http://www.w3.org/1999/xlink">
<defs>
<symbol id="icon-arrow-left" viewBox="0 0 32 32">
<path d="M7.703 17.067l-1.203-0.818 22.877-0.001v-0.64l-22.733 0.001 1.133-0.651-0.319-0.555-2.608 1.498 2.493 1.695 0.36-0.529z"></path>
</symbol>
<symbol id="icon-arrow-right" viewBox="0 0 32 32">
<path d="M25.285 15.843l1.207 0.839h-22.872v0.63h22.715l-1.154 0.63 0.315 0.577 2.623-1.521-2.518-1.679-0.315 0.525z"></path>
</symbol>
<symbol id="icon-burger" viewBox="0 0 32 32">
<path d="M4 5.333h24v2.667h-24v-2.667zM12 14.667h16v2.667h-16v-2.667zM4 24h24v2.667h-24v-2.667z"></path>
</symbol>
<symbol id="icon-circle" viewBox="0 0 32 32">
<path d="M16 31.65c-8.6 0-15.65-7-15.65-15.65s7.050-15.65 15.65-15.65 15.65 7 15.65 15.65-7.050 15.65-15.65 15.65zM16 0.85c-8.35 0-15.15 6.8-15.15 15.15s6.8 15.15 15.15 15.15 15.15-6.8 15.15-15.15c0-8.35-6.8-15.15-15.15-15.15z"></path>
</symbol>
<symbol id="icon-close" viewBox="0 0 32 32">
<path d="M8 25.333c-0.4 0-0.667-0.133-0.933-0.4-0.533-0.533-0.533-1.333 0-1.867l16-16c0.533-0.533 1.333-0.533 1.867 0s0.533 1.333 0 1.867l-16 16c-0.267 0.267-0.533 0.4-0.933 0.4z"></path>
<path d="M24 25.333c-0.4 0-0.667-0.133-0.933-0.4l-16-16c-0.533-0.533-0.533-1.333 0-1.867s1.333-0.533 1.867 0l16 16c0.533 0.533 0.533 1.333 0 1.867-0.267 0.267-0.533 0.4-0.933 0.4z"></path>
</symbol>
<symbol id="icon-correct" viewBox="0 0 32 32">
<path d="M0 16c0-8.8 7.2-16 16-16s16 7.2 16 16c0 8.8-7.2 16-16 16s-16-7.2-16-16zM23.2 13.28c0.64-0.64 0.64-1.76 0-2.4s-1.76-0.64-2.4 0l-6.72 6.72-2.88-2.88c-0.64-0.64-1.76-0.64-2.4 0s-0.64 1.76 0 2.4l4 4.16c0.64 0.64 1.76 0.64 2.4 0l8-8z"></path>
</symbol>
<symbol id="icon-error" viewBox="0 0 32 32">
<path d="M0 16c0-8.8 7.2-16 16-16s16 7.2 16 16c0 8.8-7.2 16-16 16s-16-7.2-16-16zM10.88 12.96l3.040 3.040-2.88 3.040c-0.64 0.64-0.64 1.6 0 2.080 0.64 0.64 1.6 0.64 2.080 0l2.88-2.88 3.040 2.88c0.64 0.64 1.6 0.64 2.080 0 0.64-0.48 0.64-1.44 0-2.080l-3.040-3.040 2.88-2.88c0.64-0.48 0.64-1.44 0-2.080-0.48-0.64-1.44-0.64-2.080 0l-2.88 2.88-3.040-3.040c-0.48-0.64-1.44-0.64-2.080 0-0.48 0.64-0.48 1.6 0 2.080z"></path>
</symbol>
<symbol id="icon-facebook" viewBox="0 0 32 32">
<path d="M18.629 30.514h-5.371c-0.686 0-1.143-0.457-1.143-1.143v-9.486h-2.743c-0.686 0-1.143-0.457-1.143-1.143v-5.371c0-0.686 0.457-1.143 1.143-1.143h2.857v-2.857c0-2.057 0.8-4 2.286-5.486s3.429-2.286 5.486-2.286h4c0.686 0 1.143 0.457 1.143 1.143v5.257c0 0.686-0.457 1.143-1.143 1.143h-4.114v2.971h4.114c0.343 0 0.686 0.114 0.914 0.457s0.343 0.686 0.229 1.029l-1.371 5.371c-0.114 0.457-0.571 0.914-1.143 0.914h-2.857v9.486c0 0.571-0.457 1.143-1.143 1.143zM14.514 28.229h3.086v-9.486c0-0.686 0.457-1.143 1.143-1.143h3.086l0.8-3.086h-3.886c-0.686 0-1.143-0.457-1.143-1.143v-4c0-0.686 0.229-1.257 0.686-1.714s1.143-0.686 1.714-0.686h2.857v-3.2h-2.857c-1.486 0-2.857 0.571-3.886 1.6s-1.6 2.4-1.6 3.886v4c0 0.686-0.457 1.143-1.143 1.143h-2.857v3.086h2.857c0.686 0 1.143 0.457 1.143 1.143v9.6z"></path>
</symbol>
<symbol id="icon-instagram" viewBox="0 0 32 32">
<path d="M22.629 30.514h-13.257c-4.343 0-7.771-3.543-7.771-7.771v-13.371c0-4.343 3.543-7.771 7.771-7.771h13.371c4.343 0 7.771 3.543 7.771 7.771v13.371c0 4.229-3.543 7.771-7.886 7.771zM9.371 3.771c-3.086 0-5.486 2.514-5.486 5.486v13.371c0 3.086 2.514 5.486 5.486 5.486h13.371c3.086 0 5.486-2.514 5.486-5.486v-13.257c0-3.086-2.514-5.486-5.486-5.486h-13.371z"></path>
<path d="M16.114 22.4c-0.343 0-0.686 0-1.029-0.114-1.371-0.114-2.629-0.8-3.657-1.714-0.914-0.914-1.6-2.171-1.829-3.543s0-2.743 0.571-3.886c0.571-1.257 1.6-2.171 2.857-2.857s2.629-0.914 3.886-0.686c1.371 0.229 2.629 0.8 3.657 1.829s1.6 2.286 1.829 3.657c0 0 0 0 0 0 0.229 1.371 0 2.743-0.686 3.886-0.686 1.257-1.6 2.171-2.857 2.857-0.8 0.343-1.829 0.571-2.743 0.571zM16 11.771c-0.686 0-1.371 0.114-1.943 0.457-0.8 0.457-1.371 1.029-1.829 1.829-0.343 0.8-0.571 1.714-0.343 2.514 0.114 0.914 0.571 1.714 1.143 2.286s1.371 1.029 2.286 1.143c0.914 0.114 1.714 0 2.514-0.343s1.371-1.029 1.829-1.829c0.457-0.8 0.571-1.714 0.457-2.514-0.114-0.914-0.571-1.714-1.143-2.4-0.686-0.686-1.486-1.029-2.4-1.143-0.114 0-0.343 0-0.571 0z"></path>
<path d="M23.314 9.829c-0.686 0-1.143-0.457-1.143-1.143s0.457-1.143 1.143-1.143v0c0.686 0 1.143 0.457 1.143 1.143s-0.457 1.143-1.143 1.143z"></path>
</symbol>
<symbol id="icon-logo" viewBox="0 0 40 32">
<path d="M16.463 31.448v-5.12l-0.132-0.839v-8.563c0-1.971-0.559-3.487-1.677-4.546-1.089-1.059-2.722-1.589-4.899-1.589-1.501 0-2.928 0.25-4.281 0.75s-2.501 1.162-3.443 1.986l-1.412-2.339c1.177-1 2.589-1.766 4.237-2.295 1.648-0.559 3.384-0.839 5.208-0.839 3.001 0 5.311 0.75 6.93 2.251 1.648 1.471 2.472 3.722 2.472 6.753v14.389h-3.001zM8.474 31.669c-1.736 0-3.252-0.28-4.546-0.839-1.265-0.589-2.236-1.383-2.913-2.383-0.677-1.030-1.015-2.207-1.015-3.531 0-1.206 0.28-2.295 0.839-3.266 0.589-1 1.53-1.795 2.825-2.383 1.324-0.618 3.090-0.927 5.297-0.927h7.989v2.339h-7.901c-2.236 0-3.796 0.397-4.679 1.192-0.853 0.794-1.28 1.78-1.28 2.957 0 1.324 0.515 2.383 1.545 3.178s2.472 1.192 4.326 1.192c1.766 0 3.281-0.397 4.546-1.192 1.295-0.824 2.236-2.001 2.825-3.531l0.706 2.163c-0.589 1.53-1.618 2.751-3.090 3.663-1.442 0.912-3.266 1.368-5.473 1.368z"></path>
<path d="M29.44 31.669c-2.413 0-4.531-0.5-6.356-1.501-1.824-1.030-3.251-2.428-4.281-4.193-1.030-1.795-1.545-3.84-1.545-6.135s0.486-4.326 1.457-6.091c1-1.766 2.354-3.149 4.061-4.149 1.736-1.030 3.678-1.545 5.826-1.545 2.178 0 4.105 0.5 5.782 1.501 1.707 0.971 3.046 2.354 4.017 4.149 0.971 1.766 1.457 3.811 1.457 6.135 0 0.147-0.015 0.309-0.044 0.486 0 0.147 0 0.309 0 0.486h-20.171v-2.339h18.494l-1.236 0.927c0-1.677-0.368-3.163-1.103-4.458-0.706-1.324-1.677-2.354-2.913-3.090s-2.663-1.103-4.281-1.103c-1.589 0-3.016 0.368-4.281 1.103s-2.251 1.766-2.957 3.090c-0.706 1.324-1.059 2.84-1.059 4.546v0.486c0 1.766 0.383 3.325 1.148 4.679 0.794 1.324 1.883 2.369 3.266 3.134 1.412 0.736 3.016 1.103 4.811 1.103 1.412 0 2.722-0.25 3.928-0.75 1.236-0.5 2.295-1.265 3.178-2.295l1.766 2.030c-1.030 1.236-2.325 2.177-3.884 2.825-1.53 0.647-3.222 0.971-5.076 0.971z"></path>
<path d="M37.296 3.31h-15.448v-3.31h15.448v3.31z"></path>
</symbol>
<symbol id="icon-tel" viewBox="0 0 32 32">
<path d="M26.332 6.267l-3.347-3.344c-0.409-0.409-0.955-0.638-1.534-0.638s-1.125 0.226-1.534 0.638l-3.605 3.598c-0.409 0.409-0.638 0.958-0.638 1.537 0 0.581 0.226 1.125 0.638 1.537l2.816 2.819c-0.642 1.495-1.563 2.852-2.715 4-1.153 1.16-2.502 2.074-3.998 2.721l-2.816-2.819c-0.409-0.408-0.955-0.638-1.534-0.638-0.285-0.001-0.568 0.055-0.831 0.164s-0.502 0.271-0.703 0.473l-3.608 3.598c-0.409 0.408-0.638 0.958-0.638 1.537 0 0.581 0.226 1.125 0.638 1.537l3.344 3.344c0.698 0.698 1.659 1.097 2.646 1.097 0.204 0 0.402-0.016 0.603-0.050 4.161-0.685 8.291-2.9 11.625-6.232 3.331-3.337 5.544-7.466 6.235-11.63 0.198-1.182-0.198-2.398-1.047-3.249zM25.15 9.143c-0.613 3.705-2.605 7.401-5.607 10.402s-6.694 4.993-10.4 5.606c-0.465 0.078-0.943-0.078-1.282-0.415l-3.284-3.284 3.482-3.485 3.793 3.799 0.679-0.251c2.058-0.757 3.928-1.952 5.478-3.503s2.745-3.42 3.501-5.479l0.251-0.679-3.797-3.793 3.482-3.485 3.284 3.284c0.339 0.339 0.497 0.817 0.418 1.282z"></path>
</symbol>
</defs>
</svg>
