<svg xmlns="http://www.w3.org/2000/svg" aria-hidden="true" style="position:absolute;width:0;height:0;overflow:hidden"><defs><symbol id="icon-Frame-48" viewBox="0 0 58 32"><path fill="#f58b3d" d="M46.999 25.599c.539 3.691-12.54 6.099-23.798 4.419S6.778 21.776 12.15 18.28c5.372-3.496 34.309 3.628 34.849 7.319z" opacity=".255" style="fill:var(--color1, #f58b3d)"/><path fill="#f58b3d" d="M30.819 10.218c-.169.118-.177.327-.039.468.164.168.464.162.688.146.101-.007.642-.047.514-.128.01.003.03.012.052.023l.037.118-.004.002-.005.003.006-.003.004-.002c.13.393.315.767.557 1.117a1.244 1.244 0 0 0-.28-.068c-.282-.033-.875.168-.56.511.214.233.512.125.789.024a1.78 1.78 0 0 1 .328-.097c.333.425.7.833 1.085 1.227a.093.093 0 0 0-.056.043c-.046-.021-.092-.045-.138-.069a1.306 1.306 0 0 0-.32-.133c-.206-.04-.629-.064-.785.105-.192.208.014.376.24.416.308.054.704-.071 1.013-.169l.061-.019c.036.006.076-.004.099-.03l.021-.006c.39.392.794.771 1.196 1.142l-.013-.001a1.14 1.14 0 0 0-.339-.142c-.282-.063-.614-.063-.843.124s-.309.511-.073.72c.327.289.761-.078 1.076-.345.14-.119.257-.218.33-.23.409.373.841.721 1.28 1.062a.873.873 0 0 0-.154-.029c-.43-.038-1.44.445-.912.92.35.315.742-.07 1.073-.396.104-.102.202-.199.291-.266l.193.148c.35.268.699.537 1.041.814a1.28 1.28 0 0 0-.67.004c-.244.068-.639.237-.484.539.157.307.631.167.878.07.051-.02.122-.059.203-.103a2.65 2.65 0 0 1 .438-.205c.645.557 1.203 1.171 1.626 1.893.264.451.464.933.605 1.429l.036.122c.094.32.227.774.196 1.137.169-.824-.137-1.814-.466-2.55-.303-.677-.757-1.272-1.288-1.807.045-.124.203-.266.367-.414.32-.289.662-.597.218-.823-.356-.18-.721.119-.799.436-.054.218.028.491.114.702a10.667 10.667 0 0 0-.52-.474 25.14 25.14 0 0 0-.757-.618c.422-.362.82-1.398.255-1.567-.771-.231-.486.959-.393 1.349l.019.079a.052.052 0 0 0 .039-.013c-.005.024-.01.05-.017.076l-.455-.356c-.34-.264-.679-.529-1.011-.801a.562.562 0 0 0 .096-.112c.024-.032.048-.065.07-.089.122-.134.239-.274.324-.431.135-.248.265-.644-.093-.79-.389-.159-.573.289-.576.556-.001.126.024.247.049.369.012.057.024.114.033.172a.565.565 0 0 1 .001.075c-.002.09-.005.208.057.127a.494.494 0 0 0-.003.09 17.277 17.277 0 0 1-.257-.216.074.074 0 0 0 .007-.031c.005-.08-.083-.11-.144-.087a18.59 18.59 0 0 1-.333-.297 46.158 46.158 0 0 1-.699-.657c.026-.02.033-.045.041-.07.007-.023.014-.047.037-.067.026-.023.065-.04.105-.058a.485.485 0 0 0 .091-.047c.14-.098.256-.242.339-.383.138-.233.317-.722-.087-.833-.416-.115-.628.356-.654.65-.005.057.041.571.077.757a21.728 21.728 0 0 1-1.24-1.289c.116-.001.447-.219.514-.279.163-.145.422-.467.136-.637-.254-.151-.567.068-.676.28-.018.035-.081.36-.086.506a11.367 11.367 0 0 1-.452-.563 5.468 5.468 0 0 1-.264-.385.184.184 0 0 0 .056-.05c.424-.066.964-.671.466-.881-.237-.1-.494.107-.61.276-.022.032-.057.186-.087.318l-.006.028a6.891 6.891 0 0 1-.556-1.367c.037-.008.068-.034.072-.079.206-.107.368-.197.512-.403.089-.128.25-.421-.012-.492-.341-.092-.555.384-.583.619a2.29 2.29 0 0 0-.002.179.136.136 0 0 0-.035.001 9.669 9.669 0 0 1-.191-.884c.186-.055.218-.949.094-1.077-.277-.285-.473.127-.458.344.017.257.145.49.296.698l.005.007.007.008.002-.01.002-.015a.057.057 0 0 0 .016.034l-.007.103c-.007.101-.014.201-.009.29.021.342.065.687.128 1.025.016.082.033.164.053.245a2.231 2.231 0 0 0-.43-.253c-.205-.084-.521-.175-.724-.032zm10.305 11.888a2.393 2.393 0 0 1-.077.319c.044-.09.068-.2.077-.319z" style="fill:var(--color1, #f58b3d)"/><path fill="#f1f447" d="M20.656 2.591c.123.085.129.236.028.338-.12.122-.339.117-.503.105-.074-.005-.469-.034-.375-.092a.205.205 0 0 0-.038.017l-.027.086.003.002.004.002-.004-.002-.003-.001c-.095.284-.23.555-.407.808a.908.908 0 0 1 .204-.05c.206-.024.639.121.409.37-.156.168-.373.09-.576.018a1.365 1.365 0 0 0-.239-.07c-.243.308-.512.602-.793.887a.067.067 0 0 1 .041.031c.033-.015.067-.033.101-.05.08-.041.16-.082.234-.096.151-.029.459-.047.573.075.14.15-.01.272-.176.301-.225.039-.514-.051-.739-.122l-.044-.014c-.026.004-.055-.003-.072-.022l-.015-.004c-.285.284-.58.558-.874.826h.009a.845.845 0 0 1 .248-.103c.206-.046.448-.046.615.089s.225.37.053.521c-.239.209-.555-.056-.785-.249-.102-.086-.188-.157-.241-.166-.298.27-.614.522-.935.769a.692.692 0 0 1 .112-.021c.314-.027 1.052.321.666.665-.256.228-.542-.051-.783-.286a2.286 2.286 0 0 0-.213-.192l-.141.107c-.255.194-.511.388-.76.589a.933.933 0 0 1 .489.003c.179.049.467.171.353.389-.115.222-.461.121-.641.051a1.676 1.676 0 0 1-.148-.074 1.9 1.9 0 0 0-.32-.148c-.471.403-.879.847-1.188 1.37a4.478 4.478 0 0 0-.443 1.033l-.026.089c-.069.231-.166.56-.144.822-.123-.596.101-1.312.342-1.844.222-.49.553-.92.941-1.307-.033-.09-.148-.193-.268-.299-.234-.209-.483-.432-.159-.595.26-.13.527.086.583.315.039.157-.021.355-.084.508.122-.118.249-.232.38-.343.181-.153.366-.301.553-.447-.308-.262-.598-1.011-.186-1.133.563-.167.355.693.286.976l-.014.057a.034.034 0 0 1-.028-.01.607.607 0 0 0 .012.055l.333-.258c.248-.191.496-.383.738-.58-.019-.013-.044-.047-.07-.081a.754.754 0 0 0-.051-.064 1.61 1.61 0 0 1-.236-.312c-.098-.179-.193-.466.068-.571.284-.115.419.208.42.402a1.2 1.2 0 0 1-.036.267 2.708 2.708 0 0 0-.024.124c-.002.011-.001.031-.001.054.001.065.003.15-.042.092.003.029.003.05.002.065l.188-.156a.08.08 0 0 1-.006-.022c-.003-.058.061-.08.105-.063.082-.071.163-.142.243-.215.169-.154.34-.313.511-.476-.019-.015-.024-.032-.03-.05s-.01-.034-.027-.049c-.019-.017-.048-.029-.076-.042a.34.34 0 0 1-.066-.034.906.906 0 0 1-.247-.277c-.101-.169-.231-.522.064-.603.304-.083.458.257.477.47.004.041-.031.413-.057.548.315-.301.625-.614.906-.933-.085-.001-.326-.159-.375-.202-.119-.105-.308-.337-.099-.46.186-.109.414.049.493.202.013.025.059.26.062.366.116-.135.227-.271.33-.407.069-.091.133-.183.193-.278a.134.134 0 0 1-.041-.036c-.309-.047-.703-.485-.34-.637.173-.072.361.077.445.199.016.023.042.135.064.23l.005.02c.173-.314.305-.647.406-.988-.027-.006-.05-.025-.053-.057-.15-.078-.269-.142-.373-.291-.065-.093-.182-.304.009-.356.249-.067.405.278.426.447.002.02.002.077.001.13a.113.113 0 0 1 .026 0 7.02 7.02 0 0 0 .14-.64c-.136-.04-.159-.686-.068-.779.202-.206.345.092.334.249-.013.186-.106.355-.216.504l-.004.005-.005.006-.001-.007-.001-.011a.045.045 0 0 1-.012.025l.005.074c.005.073.01.145.006.21a6.15 6.15 0 0 1-.094.741 2.804 2.804 0 0 1-.039.177 1.68 1.68 0 0 1 .314-.183c.15-.061.38-.127.529-.024zm-7.536 8.576c.017.073.04.144.071.212a.425.425 0 0 1-.071-.212z" opacity=".2" style="fill:var(--color2, #f1f447)"/><path fill="#b45661" d="M36.709 16.63c.801-.038 1.792.39 1.878 1.187.062.579.043 1.156.139 1.735.077.462.239.906.461 1.326.213.405.655.749.77 1.182.073.276.032.663-.069.933-.123.328-.057.302.187.577.48.539.912 1.091 1.218 1.735.44.927.729 2.01.565 3.025-.021.129-.045.591-.239.623-.217.036-.115-.228-.104-.314.074-.545.139-1.021.05-1.575-.343-2.136-2.017-3.543-3.108-5.355-.06-.093-.186-.316-.275-.463-.139-.232-.279-.673-.467-.845-.354-.324-.029.327.04.451.087.157.183.324.273.462.409.639.866 1.336 1.288 1.994-1.827.381-3.114-1.629-3.604-2.95-.404-1.089-.887-3.634.995-3.727z" opacity=".49" style="fill:var(--color3, #b45661)"/><path fill="#e7502f" d="M47.448 14.608c-1.339.097-2.199.906-2.599 2.037-.216.609-.24 1.236-.36 1.862-.18.942-.568 1.657-1.327 2.328a2.36 2.36 0 0 0-.531.65 2.776 2.776 0 0 0-.613.802c-.199.403-.256.886-.026 1.288.062.108.217.325.377.423-.6 1.168-.929 2.448-.892 3.726.023.771.064 1.543.112 2.314.013.207.087.549.197.201.101-.317-.026-.816-.038-1.147-.057-1.615-.106-3.084.621-4.593.076-.158.157-.315.241-.471l.014-.009.009.007.021-.031a.435.435 0 0 0 .065-.084c.064-.082.137-.178.138-.23v-.001c.45-.672.965-1.307 1.492-1.929-.004.005.571-.712.482-.316-.043.191-.466.554-.636.756-.378.45-.821 1.02-1.19 1.571-.05.026-.12.154-.17.25-.028.048-.054.097-.08.14 1.306.395 2.322-.401 3.015-1.326l.002-.003c.211-.256.427-.509.697-.712.45-.337.932-.397 1.463-.563 1.447-.453 2.063-2.169 2.258-3.443.221-1.437-.858-3.64-2.742-3.498z" opacity=".49" style="fill:var(--color4, #e7502f)"/><path fill="#e7502f" d="M44.802 10.585c-1.375 1.309-2.039 3.125-2.565 4.832-.587 1.907-.975 3.842-.99 5.825-.01 1.302-.048 2.613.035 3.913.029.462.08.925.16 1.382.007.038.186 1.058.357.82.097-.135-.184-1.059-.205-1.212-.119-.866-.147-1.739-.141-2.611.01-1.436-.037-2.866.122-4.297.024-.214.042-.438.098-.647.059-.222-.016-.125.176-.213.186-.086.417-.073.61-.181.767-.426 1.16-1.519 1.465-2.236.349-.82.562-1.695.731-2.559.125-.634.214-1.265.264-1.907.016-.203.017-.414.06-.613.012-.054.071-.149.068-.196-.005-.101-.071-.16-.076-.244a3.93 3.93 0 0 0-.169.146zM37.306 28.026c0 2.165 1.918 3.92 4.284 3.92s4.284-1.755 4.284-3.92z" opacity=".49" style="fill:var(--color4, #e7502f)"/><path fill="#b45661" d="M44.527 24.594c1.06-.071 2.244.711 2.756 1.526.412.657.343 1.519.088 2.217-.17.467-.543 1.133-1.163 1.139-.777.008-.814-.87-.829-1.383-.02-.682-.114-1.277-.702-1.742-.073-.057-.149-.111-.225-.165-.068-.048-.135-.095-.2-.146l-.031-.024c-.208-.16-.426-.328-.453-.591-.038-.382.197-.451.557-.38.012.002.043.013.086.028.184.064.576.2.501.037-.028-.061-.13-.11-.259-.146-.333-.033-.73-.072-.844-.049-1.232.247-1.712 1.809-1.839 2.801a8.795 8.795 0 0 0-.035.322h-.226c.016-.26.037-.519.084-.776.182-.983.749-2.426 1.995-2.586.046-.006.215-.007.42.004a.806.806 0 0 1 .32-.087z" opacity=".49" style="fill:var(--color3, #b45661)"/><path fill="#b45661" d="M18.539 9.471c.247-.322.704-1.139 1.051-1.254.224-.074.158.692.161.838.011.565-.049 1.127-.124 1.687-.134 1.011-.571 1.911-1.171 2.771-.309.443-.671.891-1.172 1.167-.231.127-.509.148-.737.258-.265.128-.121.024-.241.278-.166.351-.219.805-.296 1.18-.353 1.722-1.208 10.823-1.059 12.574a.118.118 0 0 1-.235.003c-.063-1.005.48-7.963.754-10.238s.551-4.286.829-5.073c.337-.955.947-2.104 1.454-2.994.236-.414.492-.813.785-1.196z" opacity=".25" style="fill:var(--color3, #b45661)"/><path fill="#f1f447" d="M20.369 20.631c.642-.431 1.337.382.756.814-.321.238-.657.154-.846-.045-.123.137-.237.28-.348.401-.336.368-.654.745-.957 1.131-.631.801-1.171 1.648-1.736 2.479a52.452 52.452 0 0 0-1.616 2.486c-.428.713-.999 1.551-1.146 2.332.222-1.657 1.066-3.249 2.072-4.71.997-1.449 2.141-3.031 3.685-4.174-.157-.211-.161-.513.137-.713z" opacity=".25" style="fill:var(--color2, #f1f447)"/><path fill="#b45661" d="M8.191 16.591c.359.064.946.807 1.242 1.091.352.337.671.695.972 1.071a17.929 17.929 0 0 1 1.72 2.566 22.643 22.643 0 0 1 1.913 4.556c.286.975.471 1.985.58 2.988.021.189.238 1.648-.075 1.687-.281.035-.194-1.108-.208-1.263-.153-1.754-.612-3.461-1.251-5.114-.139-.36-.268-.801-.491-1.125-.16-.233-.001-.152-.283-.24-.242-.076-.517-.057-.764-.15-.538-.202-.968-.593-1.345-.987-.733-.766-1.314-1.594-1.617-2.575-.168-.544-.322-1.091-.408-1.652-.022-.145-.216-.894.015-.852z" opacity=".25" style="fill:var(--color3, #b45661)"/><path fill="#e7502f" d="M9.609 4.223c1.353 2.146 2.464 4.504 3.182 6.893.435 1.447.739 2.932 1.041 4.406.468 2.282.91 4.565 1.036 6.888.127 2.336.377 5.031-.459 7.282.418-2.285.02-4.717-.05-7.016a38.184 38.184 0 0 0-.259-3.275c-.124-1.058-.327-2.112-.516-3.162-.092-.511-.189-1.022-.287-1.532-.029-.152-.042-.604-.147-.708s-.648-.147-.819-.224a4.388 4.388 0 0 1-.95-.607c-.547-.445-1.023-1.027-1.398-1.6-.869-1.327-1.216-2.946-1.199-4.483.003-.298.528-3.511.317-3.555a.672.672 0 0 0 .036-.042c.159.244.316.49.471.737z" opacity=".25" style="fill:var(--color4, #e7502f)"/><path fill="#e7502f" d="M24.21 11.965c.021-.028.157-.219.088-.207.139-.025-.192.211.156.066-.165.142-.07.327-.067.519.003.311-.053.62-.117.924a5.944 5.944 0 0 1-.471 1.397 6.402 6.402 0 0 1-2.248 2.524c-.475.301-.94.404-1.481.542-.342.088-.369.249-.551.553a32.287 32.287 0 0 0-1.082 1.916c-.398.78-.784 1.562-1.148 2.356-1.228 2.675-2.227 5.447-2.751 8.316-.013-1.69.415-3.432.954-5.043.393-1.174.904-2.306 1.449-3.426.132-.272.332-.62.388-.92.039-.21-.081-.412-.136-.633-.215-.861-.199-1.826-.011-2.692.208-.955.808-1.398 1.824-1.533.371-.049.844-.031 1.184-.176.371-.158.524-.676.735-1.009a13.918 13.918 0 0 1 2.013-2.506c.214-.209.444-.401.689-.58.154-.113.48-.251.584-.39z" opacity=".25" style="fill:var(--color4, #e7502f)"/><path fill="#f1f447" d="M12.53 29.354c-.026-.162.111-.308.29-.308h3.605c.179 0 .316.146.29.308l-.279 1.728c-.085.527-.579.917-1.161.917H13.97c-.582 0-1.076-.39-1.161-.917l-.279-1.728z" opacity=".25" style="fill:var(--color2, #f1f447)"/><path fill="#f58b3d" d="M9.571 29.93c0 1.143.099 2.07 1.422 2.07s1.422-.927 1.422-2.07z" style="fill:var(--color1, #f58b3d)"/><path fill="#f58b3d" d="M11.387 29.217a2.258 2.258 0 0 0-.13.234 2.988 2.988 0 0 1 .036-.496c.046-.286.117-.571.183-.855.048-.204.045-.571.225-.734.05-.035.061.034.061.064.001.006 0-.122-.048-.1-.286.135-.378.56-.47.772-.134.31-.247.628-.294.951a2.023 2.023 0 0 0-.02.244l-.029-.065a4.385 4.385 0 0 0-.665-1.018c-.068-.078-.928-.852-.995-.734a.087.087 0 0 0 .042.043c.001.001.001 0 .001-.001.05.075.194.19.239.255.113.164.2.339.289.51.188.362.362.727.531 1.094.039.085.08.17.122.255-.431-.569-1.006-1.085-1.797-1.38.27.126.447.362.63.544.22.219.452.431.672.649.26.258.566.529.816.814.242.466.478.932.623 1.421-.06-.169-.005-.403-.015-.58a3.53 3.53 0 0 0-.051-.421.794.794 0 0 1 .069.185 9.438 9.438 0 0 0-.037-.294c.035-.091.069-.176.092-.246.118-.359.258-.712.448-1.057.177-.318.379-.633.6-.938l.311-.425c.068-.093.132-.241.227-.33-.611.511-1.278 1.026-1.666 1.639zM48.436 5.894c-.175-.534-.586-.953-1.013-1.336-.831-.746-1.277-1.207-1.574-2.299-.174-.642-.351-1.322-.904-1.788-.402-.339-1.094-.624-1.632-.381-.827.452-1.05 1.379-.966 2.209.103 1.029.629 1.664 1.638 2.043.569.213.947.495 1.255.986.247.392.391.884.701 1.24.464.532 1.044.768 1.76.68-.67-1.128-1.453-2.267-2.398-3.217-.088-.095-.61-.461-.505-.624.116-.179.651.494.647.49.274.288.528.595.778.904l-.002.001c.257.317.512.639.761.965.101.138.199.278.294.421.138.21.358.806.584.936a.37.37 0 0 0 .135.049c.154.231.304.464.447.7.373.616.693 1.266.84 1.961.043.203.013.962.164 1.108.277.268.196-.248.179-.404-.138-1.289-.644-2.388-1.378-3.472.226-.27.258-.956.187-1.173zM38.957 6.517c.292-.315.993-.368 1.422-.347.531.026 1.076.144 1.581.287.832.235 1.64.665 2.373 1.081.088.05 1.176.649 1.08.754s-1.163-.607-1.401-.729c-.508-.261-.973-.571-1.533-.744a5.95 5.95 0 0 0-1.802-.245c-.078.001-.333-.049-.339.057-.005.104.417.05.491.05.307.003.617.029.92.078a4.572 4.572 0 0 1 1.588.558c-.136.289-.461.422-.802.35-.295-.062-.583-.216-.871-.261a1.438 1.438 0 0 0-.591.039c-.509.135-.802.412-1.362.22-.439-.151-1.172-.694-.753-1.146zM37.703 1.449c-.648-.043-1.371.43-1.684.922-.252.397-.21.918-.054 1.34.104.282.332.685.711.689.474.005.497-.526.506-.836.012-.413.07-.772.429-1.053.044-.035.091-.067.138-.1.041-.029.083-.058.122-.088l.019-.015c.127-.097.26-.198.277-.357.023-.231-.12-.272-.34-.229-.007.001-.026.008-.053.017-.112.038-.352.121-.306.022.017-.037.079-.066.158-.088.204-.02.446-.043.516-.029.753.149 1.046 1.093 1.124 1.693.009.068.016.136.022.204h.138c-.01-.16-.022-.32-.052-.479-.111-.594-.458-1.466-1.219-1.563a2.175 2.175 0 0 0-.256.002.496.496 0 0 0-.196-.052z" style="fill:var(--color1, #f58b3d)"/></symbol></defs></svg>